<?xml version="1.0" encoding="UTF-8"?>
<svg id="Layer_1" xmlns="http://www.w3.org/2000/svg" version="1.1" viewBox="0 0 458 460.01">
  <!-- Generator: Adobe Illustrator 29.6.0, SVG Export Plug-In . SVG Version: 2.1.1 Build 180)  -->
  <defs>
    <style>
      .st0 {
        fill: #fffefd;
      }

      .st0, .st1 {
        fill-rule: evenodd;
      }

      .st1 {
        fill: #ff9e2e;
        isolation: isolate;
        opacity: 1;
      }
    </style>
  </defs>
  <path class="st1" d="M54,1.02C170.5-.15,287.17-.31,404,.52c-2.67.33-5.33.67-8,1,34.66,3.99,55.16,23.16,61.5,57.5.67,114.33.67,228.67,0,343-4.03,25.37-17.86,43.2-41.5,53.5-6.85,2.13-13.85,3.46-21,4-110.67.67-221.33.67-332,0-25.12-2.46-43.96-14.63-56.5-36.5-2.78-6.77-4.78-13.77-6-21C-.17,287.69-.17,173.35.5,59.02,6.84,24.68,27.34,5.51,62,1.52c-2.65-.5-5.31-.66-8-.5Z"/>
  <path class="st0" d="M108,241.02c-2.01-1.42-4.35-2.09-7-2-6.38-1.18-12.72-2.68-19-4.5-3.43-2.37-3.76-5.03-1-8,27.57-6.98,55.23-13.65,83-20,2.49-2.63,2.65-5.46.5-8.5-14-22.67-28-45.33-42-68-1.33-5,.5-7.16,5.5-6.5,22.83,14.25,45.83,28.25,69,42,3.04,2.15,5.87,1.99,8.5-.5,6.26-27.84,13.09-55.5,20.5-83,2.21-2.58,4.38-2.58,6.5,0,7.25,28.18,14.42,56.35,21.5,84.5,2.47.71,4.8.37,7-1,22.33-13.67,44.67-27.33,67-41,3.86-2.54,6.52-1.71,8,2.5-13.65,23.96-27.82,47.63-42.5,71-2.57,4.55-1.4,7.71,3.5,9.5,26.13,5.82,52.13,11.82,78,18,5.31,3.07,5.31,6.07,0,9-26.23,6.58-52.56,12.91-79,19-3.6,1.33-4.77,3.83-3.5,7.5,14,22.67,28,45.33,42,68,3.17,6.8,1.34,9.3-5.5,7.5-22.67-14-45.33-28-68-42-3.91-2.48-6.74-1.65-8.5,2.5-6.77,26.96-13.44,53.96-20,81-4.68,3.31-7.35,1.97-8-4-5.89-24.96-11.89-49.96-18-75-1.21-5.69-4.38-7.19-9.5-4.5-22.83,14.25-45.83,28.25-69,42-3.36,1.29-5.36.29-6-3,13.18-23.52,27.01-46.68,41.5-69.5,2.26-2.78,2.76-5.78,1.5-9-18.93-5.09-37.93-9.76-57-14Z"/>
</svg>